<svg width="419" height="187" viewBox="0 0 419 187" fill="none" xmlns="http://www.w3.org/2000/svg">
<path fill-rule="evenodd" clip-rule="evenodd" d="M93.1519 161.152C130.707 161.152 161.152 130.707 161.152 93.1519C161.152 55.5966 130.707 25.1519 93.1519 25.1519C55.5965 25.1519 25.1519 55.5966 25.1519 93.1519C25.1519 130.707 55.5965 161.152 93.1519 161.152ZM95.1319 48.3004C94.8583 47.7533 94.3013 47.4056 93.6896 47.4002C93.0779 47.3948 92.5148 47.7326 92.2316 48.2748L75.3609 80.5757L60.8101 63.3281C60.4798 62.9366 59.9846 62.7233 59.4732 62.7522C58.9618 62.7812 58.4938 63.049 58.2099 63.4753L44.5659 83.956C44.3877 84.2235 44.2927 84.5376 44.2927 84.859V118.954H47.55V85.3518L59.7186 67.0857L73.7314 83.6956L65.7964 98.8881C65.5327 99.3929 65.5519 99.9989 65.8471 100.486C66.1422 100.973 66.6704 101.271 67.24 101.271H85.2258V119.031L66.3874 119.031L66.3874 122.288H120.963V119.031L102.127 119.031L102.127 101.822H119.258C119.822 101.822 120.346 101.53 120.643 101.05C120.94 100.57 120.967 99.9702 120.714 99.4653L112.403 82.8423L124.351 67.1028L137.743 85.3915V118.954H141V84.859C141 84.513 140.89 84.1759 140.686 83.8967L125.688 63.416C125.384 63.0011 124.902 62.7541 124.388 62.7497C123.874 62.7452 123.388 62.9839 123.077 63.3935L110.779 79.5944L95.1319 48.3004ZM92.3213 89.0574L86.3506 98.0134H69.9281L93.6436 52.6073L116.622 98.565H101.37L95.0315 89.0574C94.7295 88.6043 94.221 88.3321 93.6764 88.3321C93.1319 88.3321 92.6234 88.6043 92.3213 89.0574ZM93.6764 92.8969L98.8697 100.687L98.8698 119.031H88.4831V100.687L93.6764 92.8969Z" fill="#FFFCF5"></path>
<path d="M193.772 88.3046H203.221L213.156 102.181V88.3046H224.441V124.319H214.938L205.057 110.496V124.319H193.772V88.3046Z" fill="#FFFCF5"></path>
<path d="M241.594 88.3046H250.234L263.894 124.319H252.555L251.367 121.079H240.461L239.273 124.319H227.934L241.594 88.3046ZM248.344 113.142L245.914 106.825L243.484 113.142H248.344Z" fill="#FFFCF5"></path>
<path d="M303.535 102.019C303.535 104.503 303.103 106.627 302.239 108.39C301.375 110.118 300.187 111.522 298.675 112.602C297.2 113.682 295.454 114.474 293.438 114.978C291.458 115.482 289.316 115.734 287.013 115.734V124.319H275.512V88.3046H287.013C289.316 88.3046 291.458 88.5566 293.438 89.0606C295.454 89.5645 297.2 90.3564 298.675 91.4363C300.187 92.5162 301.375 93.938 302.239 95.7018C303.103 97.4296 303.535 99.5354 303.535 102.019ZM287.013 106.015H287.499C289.01 106.015 290.09 105.673 290.738 104.989C291.422 104.269 291.764 103.279 291.764 102.019C291.764 100.759 291.422 99.7874 290.738 99.1035C290.09 98.3835 289.01 98.0236 287.499 98.0236H287.013V106.015Z" fill="#FFFCF5"></path>
<path d="M307.603 88.3046H317.052L326.986 102.181V88.3046H338.271V124.319H328.768L318.887 110.496V124.319H307.603V88.3046Z" fill="#FFFCF5"></path>
<path d="M345.004 88.3046H357.207V124.319H345.004V88.3046Z" fill="#FFFCF5"></path>
<path d="M378.151 125.237C375.883 125.237 373.831 124.949 371.995 124.373C370.16 123.797 368.594 122.933 367.298 121.781C366.002 120.629 364.994 119.171 364.274 117.407C363.59 115.644 363.248 113.574 363.248 111.198V88.3046H374.749V110.712C374.749 111.972 375.001 112.944 375.505 113.628C376.045 114.276 376.927 114.6 378.151 114.6C379.375 114.6 380.239 114.276 380.743 113.628C381.282 112.944 381.552 111.972 381.552 110.712V88.3046H393.107V111.198C393.107 113.574 392.747 115.644 392.027 117.407C391.343 119.171 390.335 120.629 389.004 121.781C387.708 122.933 386.142 123.797 384.306 124.373C382.47 124.949 380.419 125.237 378.151 125.237Z" fill="#FFFCF5"></path>
<path d="M200.455 73.0147C198.246 73.0147 196.112 72.8867 194.052 72.6305V49.6281C195.141 49.3933 196.315 49.2119 197.574 49.0838C198.844 48.9558 200.055 48.8917 201.208 48.8917C209.83 48.8917 214.142 52.9202 214.142 60.9772C214.142 65.0964 213.01 68.1325 210.748 70.0854C208.486 72.0383 205.055 73.0147 200.455 73.0147ZM201.272 70.1174C203.363 70.1174 205.087 69.8026 206.442 69.173C207.808 68.5327 208.827 67.5402 209.499 66.1956C210.172 64.8403 210.508 63.0955 210.508 60.9612C210.508 57.8025 209.75 55.4867 208.235 54.0141C206.73 52.5307 204.436 51.7891 201.352 51.7891C200.253 51.7891 198.993 51.8958 197.574 52.1092V69.9093C198.62 70.048 199.852 70.1174 201.272 70.1174Z" fill="#FFFCF5"></path>
<path d="M231.097 73.1268C228.856 73.1268 226.914 72.6839 225.271 71.7982C223.638 70.9124 222.373 69.5678 221.477 67.7643C220.58 65.9502 220.132 63.6878 220.132 60.9772C220.132 58.2667 220.58 56.0096 221.477 54.2062C222.384 52.392 223.654 51.0421 225.287 50.1563C226.93 49.2706 228.867 48.8277 231.097 48.8277C233.338 48.8277 235.28 49.2706 236.924 50.1563C238.567 51.0421 239.837 52.392 240.734 54.2062C241.63 56.0203 242.078 58.2773 242.078 60.9772C242.078 63.6771 241.625 65.9342 240.718 67.7483C239.821 69.5625 238.551 70.9124 236.908 71.7982C235.264 72.6839 233.328 73.1268 231.097 73.1268ZM231.097 70.2134C233.434 70.2134 235.243 69.4771 236.524 68.0044C237.815 66.5318 238.461 64.2214 238.461 61.0733C238.461 57.8398 237.815 55.4761 236.524 53.9821C235.243 52.488 233.434 51.741 231.097 51.741C228.76 51.741 226.951 52.4774 225.671 53.95C224.39 55.412 223.75 57.7224 223.75 60.8812C223.75 67.1027 226.199 70.2134 231.097 70.2134Z" fill="#FFFCF5"></path>
<path d="M269.626 49.1318H273.852V72.8226H270.538V53.934L263.015 69.4931H259.957L252.45 54.2222V72.8226H249.136V49.1318H253.346L261.558 66.0355L269.626 49.1318Z" fill="#FFFCF5"></path>
<path d="M297.024 72.8226L288.94 62.2418H285.45V72.8226H281.929V49.1318H285.45V59.1204H288.972L296.447 49.1318H300.257L291.677 60.6091L300.961 72.8226H297.024Z" fill="#FFFCF5"></path>
<path d="M305.937 72.8226V49.1318H309.459V72.8226H305.937Z" fill="#FFFCF5"></path>
</svg>