<svg width="200" height="77" viewBox="0 0 200 77" fill="none" xmlns="http://www.w3.org/2000/svg">
<path d="M0 39.4769H9.44895L19.3839 53.3534V39.4769H30.6686V75.491H21.1657L11.2847 61.6685V75.491H0V39.4769Z" fill="#242F25"/>
<path d="M47.8222 39.4769H56.4613L70.1218 75.491H58.783L57.5952 72.2513H46.6884L45.5005 75.491H34.1618L47.8222 39.4769ZM54.5715 64.3142L52.1418 57.9969L49.712 64.3142H54.5715Z" fill="#242F25"/>
<path d="M109.763 53.1914C109.763 55.6751 109.331 57.7989 108.467 59.5627C107.603 61.2905 106.415 62.6944 104.903 63.7742C103.427 64.8541 101.682 65.646 99.6658 66.15C97.686 66.6539 95.5442 66.9059 93.2405 66.9059V75.491H81.7398V39.4769H93.2405C95.5442 39.4769 97.686 39.7289 99.6658 40.2329C101.682 40.7368 103.427 41.5287 104.903 42.6086C106.415 43.6885 107.603 45.1103 108.467 46.8741C109.331 48.6019 109.763 50.7077 109.763 53.1914ZM93.2405 57.187H93.7264C95.2383 57.187 96.3181 56.845 96.9661 56.1611C97.65 55.4412 97.992 54.4513 97.992 53.1914C97.992 51.9316 97.65 50.9597 96.9661 50.2757C96.3181 49.5558 95.2383 49.1959 93.7264 49.1959H93.2405V57.187Z" fill="#242F25"/>
<path d="M113.83 39.4769H123.279L133.214 53.3534V39.4769H144.499V75.491H134.996L125.115 61.6685V75.491H113.83V39.4769Z" fill="#242F25"/>
<path d="M151.232 39.4769H163.434V75.491H151.232V39.4769Z" fill="#242F25"/>
<path d="M184.379 76.4088C182.111 76.4088 180.059 76.1209 178.223 75.5449C176.387 74.969 174.822 74.1051 173.526 72.9532C172.23 71.8014 171.222 70.3435 170.502 68.5797C169.818 66.8159 169.476 64.7461 169.476 62.3704V39.4769H180.977V61.8845C180.977 63.1443 181.229 64.1162 181.733 64.8001C182.273 65.4481 183.155 65.772 184.379 65.772C185.602 65.772 186.466 65.4481 186.97 64.8001C187.51 64.1162 187.78 63.1443 187.78 61.8845V39.4769H199.335V62.3704C199.335 64.7461 198.975 66.8159 198.255 68.5797C197.571 70.3435 196.563 71.8014 195.231 72.9532C193.936 74.1051 192.37 74.969 190.534 75.5449C188.698 76.1209 186.646 76.4088 184.379 76.4088Z" fill="#242F25"/>
<path d="M6.68309 24.187C4.47408 24.187 2.33978 24.059 0.280173 23.8028V0.800364C1.36867 0.56559 2.54254 0.384175 3.80178 0.256117C5.07169 0.128058 6.28291 0.0640283 7.43543 0.0640283C16.058 0.0640283 20.3693 4.09253 20.3693 12.1495C20.3693 16.2687 19.2381 19.3048 16.9758 21.2577C14.7134 23.2106 11.2825 24.187 6.68309 24.187ZM7.49946 21.2897C9.59108 21.2897 11.3145 20.9749 12.6698 20.3453C14.0358 19.705 15.0549 18.7125 15.7272 17.3679C16.3995 16.0126 16.7357 14.2678 16.7357 12.1335C16.7357 8.97475 15.978 6.65903 14.4626 5.18636C12.9579 3.70302 10.6636 2.96135 7.5795 2.96135C6.48033 2.96135 5.22109 3.06806 3.80178 3.28149V21.0816C4.84759 21.2203 6.08015 21.2897 7.49946 21.2897Z" fill="#242F25"/>
<path d="M37.325 24.2991C35.084 24.2991 33.1418 23.8562 31.4984 22.9705C29.8656 22.0847 28.6011 20.7401 27.7047 18.9366C26.8082 17.1225 26.36 14.8601 26.36 12.1495C26.36 9.43896 26.8082 7.18194 27.7047 5.37845C28.6117 3.56429 29.8816 2.21434 31.5144 1.32861C33.1578 0.442869 35.0947 0 37.325 0C39.5661 0 41.5083 0.442869 43.1517 1.32861C44.7951 2.21434 46.065 3.56429 46.9614 5.37845C47.8578 7.19261 48.306 9.44964 48.306 12.1495C48.306 14.8494 47.8525 17.1065 46.9454 18.9206C46.049 20.7348 44.7791 22.0847 43.1357 22.9705C41.4923 23.8562 39.5554 24.2991 37.325 24.2991ZM37.325 21.3857C39.6621 21.3857 41.4709 20.6494 42.7515 19.1767C44.0428 17.7041 44.6884 15.3937 44.6884 12.2456C44.6884 9.0121 44.0428 6.64836 42.7515 5.15435C41.4709 3.66033 39.6621 2.91333 37.325 2.91333C34.988 2.91333 33.1791 3.64966 31.8986 5.12233C30.618 6.58433 29.9777 8.89472 29.9777 12.0535C29.9777 18.275 32.4268 21.3857 37.325 21.3857Z" fill="#242F25"/>
<path d="M75.8536 0.304139H80.0795V23.9949H76.766V5.10632L69.2426 20.6654H66.1852L58.6778 5.39446V23.9949H55.3642V0.304139H59.5742L67.7859 17.2078L75.8536 0.304139Z" fill="#242F25"/>
<path d="M103.251 23.9949L95.1676 13.4141H91.678V23.9949H88.1564V0.304139H91.678V10.2927H95.1996L102.675 0.304139H106.485L97.9049 11.7814L107.189 23.9949H103.251Z" fill="#242F25"/>
<path d="M112.165 23.9949V0.304139H115.686V23.9949H112.165Z" fill="#242F25"/>
</svg>
