<svg width="419" height="186" viewBox="0 0 419 186" fill="none" xmlns="http://www.w3.org/2000/svg">
<rect x="25.152" y="25.1519" width="135.436" height="135.436" rx="67.7182" fill="#455844"/>
<path fill-rule="evenodd" clip-rule="evenodd" d="M94.5786 47.2366C95.1858 47.242 95.7388 47.5871 96.0103 48.1302L111.542 79.1941L123.75 63.1123C124.059 62.7057 124.541 62.4688 125.051 62.4732C125.562 62.4776 126.04 62.7228 126.342 63.1347L141.229 83.4648C141.432 83.7419 141.542 84.0765 141.542 84.4199V118.264H138.308V84.9486L125.014 66.7943L113.154 82.4181L121.405 98.9189C121.655 99.42 121.628 100.015 121.334 100.492C121.039 100.968 120.519 101.259 119.959 101.259H101.336V98.0252H117.343L94.533 52.4054L70.9918 97.4777H87.7925V100.711H68.3235C67.7582 100.711 67.2338 100.416 66.9409 99.9321C66.6479 99.4485 66.6288 98.847 66.8906 98.3459L74.7672 83.2651L60.8574 66.7773L48.7783 84.9091V118.264H45.5449V84.4199C45.5449 84.101 45.6393 83.7891 45.8161 83.5236L59.3598 63.1935C59.6417 62.7703 60.1062 62.5045 60.6138 62.4757C61.1215 62.447 61.6131 62.6587 61.9409 63.0473L76.3847 80.1682L93.1314 48.1048C93.4125 47.5665 93.9715 47.2312 94.5786 47.2366Z" fill="#FFFCF5"/>
<path fill-rule="evenodd" clip-rule="evenodd" d="M94.5656 87.8676C95.1061 87.8676 95.6109 88.1377 95.9107 88.5875L102.683 98.7452L99.9923 100.539L94.5656 92.3987L89.1389 100.539L86.4486 98.7452L93.2204 88.5875C93.5203 88.1377 94.025 87.8676 94.5656 87.8676Z" fill="#FFFCF5"/>
<path fill-rule="evenodd" clip-rule="evenodd" d="M89.4105 118.341V99.6419H86.1771V121.574H102.954V99.6419H99.7208V118.341H89.4105Z" fill="#FFFCF5"/>
<path fill-rule="evenodd" clip-rule="evenodd" d="M121.652 121.574L67.4772 121.574V118.341L121.652 118.341V121.574Z" fill="#FFFCF5"/>
<path d="M193.62 88.1527H203.069L213.004 102.029V88.1527H224.289V124.167H214.786L204.905 110.344V124.167H193.62V88.1527Z" fill="#242F25"/>
<path d="M241.443 88.1527H250.082L263.742 124.167H252.403L251.216 120.927H240.309L239.121 124.167H227.782L241.443 88.1527ZM248.192 112.99L245.762 106.673L243.332 112.99H248.192Z" fill="#242F25"/>
<path d="M303.383 101.867C303.383 104.351 302.951 106.475 302.087 108.238C301.223 109.966 300.035 111.37 298.524 112.45C297.048 113.53 295.302 114.322 293.286 114.826C291.306 115.33 289.165 115.582 286.861 115.582V124.167H275.36V88.1527H286.861C289.165 88.1527 291.306 88.4047 293.286 88.9086C295.302 89.4126 297.048 90.2045 298.524 91.2844C300.035 92.3642 301.223 93.7861 302.087 95.5499C302.951 97.2777 303.383 99.3835 303.383 101.867ZM286.861 105.863H287.347C288.859 105.863 289.939 105.521 290.586 104.837C291.27 104.117 291.612 103.127 291.612 101.867C291.612 100.607 291.27 99.6354 290.586 98.9515C289.939 98.2316 288.859 97.8716 287.347 97.8716H286.861V105.863Z" fill="#242F25"/>
<path d="M307.451 88.1527H316.9L326.835 102.029V88.1527H338.119V124.167H328.616L318.735 110.344V124.167H307.451V88.1527Z" fill="#242F25"/>
<path d="M344.852 88.1527H357.055V124.167H344.852V88.1527Z" fill="#242F25"/>
<path d="M377.999 125.085C375.731 125.085 373.679 124.797 371.844 124.221C370.008 123.645 368.442 122.781 367.146 121.629C365.85 120.477 364.842 119.019 364.122 117.255C363.439 115.492 363.097 113.422 363.097 111.046V88.1527H374.597V110.56C374.597 111.82 374.849 112.792 375.353 113.476C375.893 114.124 376.775 114.448 377.999 114.448C379.223 114.448 380.087 114.124 380.591 113.476C381.131 112.792 381.401 111.82 381.401 110.56V88.1527H392.955V111.046C392.955 113.422 392.595 115.492 391.875 117.255C391.191 119.019 390.184 120.477 388.852 121.629C387.556 122.781 385.99 123.645 384.154 124.221C382.318 124.797 380.267 125.085 377.999 125.085Z" fill="#242F25"/>
<path d="M200.303 72.8628C198.094 72.8628 195.96 72.7347 193.901 72.4786V49.4761C194.989 49.2414 196.163 49.0599 197.422 48.9319C198.692 48.8038 199.903 48.7398 201.056 48.7398C209.678 48.7398 213.99 52.7683 213.99 60.8253C213.99 64.9445 212.858 67.9806 210.596 69.9334C208.334 71.8863 204.903 72.8628 200.303 72.8628ZM201.12 69.9655C203.211 69.9655 204.935 69.6506 206.29 69.021C207.656 68.3807 208.675 67.3883 209.348 66.0437C210.02 64.6884 210.356 62.9436 210.356 60.8093C210.356 57.6505 209.598 55.3348 208.083 53.8621C206.578 52.3788 204.284 51.6371 201.2 51.6371C200.101 51.6371 198.841 51.7438 197.422 51.9573V69.7574C198.468 69.8961 199.701 69.9655 201.12 69.9655Z" fill="#242F25"/>
<path d="M230.945 72.9748C228.704 72.9748 226.762 72.532 225.119 71.6462C223.486 70.7605 222.221 69.4159 221.325 67.6124C220.429 65.7982 219.98 63.5359 219.98 60.8253C219.98 58.1147 220.429 55.8577 221.325 54.0542C222.232 52.2401 223.502 50.8901 225.135 50.0044C226.778 49.1186 228.715 48.6758 230.945 48.6758C233.186 48.6758 235.129 49.1186 236.772 50.0044C238.415 50.8901 239.685 52.2401 240.582 54.0542C241.478 55.8684 241.926 58.1254 241.926 60.8253C241.926 63.5252 241.473 65.7822 240.566 67.5964C239.669 69.4105 238.399 70.7605 236.756 71.6462C235.113 72.532 233.176 72.9748 230.945 72.9748ZM230.945 70.0615C233.282 70.0615 235.091 69.3252 236.372 67.8525C237.663 66.3798 238.309 64.0694 238.309 60.9213C238.309 57.6879 237.663 55.3241 236.372 53.8301C235.091 52.3361 233.282 51.5891 230.945 51.5891C228.608 51.5891 226.8 52.3254 225.519 53.7981C224.238 55.2601 223.598 57.5705 223.598 60.7293C223.598 66.9507 226.047 70.0615 230.945 70.0615Z" fill="#242F25"/>
<path d="M269.474 48.9799H273.7V72.6707H270.386V53.7821L262.863 69.3412H259.806L252.298 54.0702V72.6707H248.985V48.9799H253.195L261.406 65.8836L269.474 48.9799Z" fill="#242F25"/>
<path d="M296.872 72.6707L288.788 62.0899H285.298V72.6707H281.777V48.9799H285.298V58.9684H288.82L296.295 48.9799H300.105L291.525 60.4571L300.809 72.6707H296.872Z" fill="#242F25"/>
<path d="M305.785 72.6707V48.9799H309.307V72.6707H305.785Z" fill="#242F25"/>
</svg>
