<svg width="135" height="135" viewBox="0 0 135 135" fill="none" xmlns="http://www.w3.org/2000/svg">
<path fill-rule="evenodd" clip-rule="evenodd" d="M67.5 135C104.779 135 135 104.779 135 67.5C135 30.2208 104.779 0 67.5 0C30.2208 0 0 30.2208 0 67.5C0 104.779 30.2208 135 67.5 135ZM69.4654 22.9783C69.1939 22.4352 68.6409 22.09 68.0337 22.0847C67.4265 22.0793 66.8676 22.4146 66.5864 22.9528L49.8398 55.0162L35.396 37.8954C35.0681 37.5068 34.5766 37.295 34.0689 37.3238C33.5613 37.3525 33.0968 37.6184 32.8149 38.0415L19.2712 58.3717C19.0944 58.6371 19 58.949 19 59.268V93.1124H22.2333V59.7572L34.3125 41.6254L48.2223 58.1132L40.3456 73.1939C40.0839 73.6951 40.103 74.2966 40.3959 74.7801C40.6889 75.2637 41.2132 75.5591 41.7786 75.5591H59.6322V93.1888L40.9323 93.1887L40.9323 96.4221H95.1069V93.1887L76.4091 93.1888L76.4091 76.1066H93.4138C93.9741 76.1066 94.4944 75.8165 94.789 75.3399C95.0836 74.8633 95.1103 74.2681 94.8598 73.7669L86.6094 57.2662L98.4693 41.6424L111.763 59.7966V93.1124H114.997V59.268C114.997 58.9245 114.887 58.59 114.684 58.3128L99.797 37.9827C99.4954 37.5709 99.017 37.3257 98.5066 37.3213C97.9961 37.3169 97.5136 37.5538 97.2049 37.9604L84.9973 54.0421L69.4654 22.9783ZM66.6755 63.4355L60.7487 72.3257H44.4469L67.988 27.2535L90.7979 72.8733H75.6576L69.3658 63.4355C69.066 62.9858 68.5612 62.7156 68.0207 62.7156C67.4801 62.7156 66.9753 62.9858 66.6755 63.4355ZM68.0207 67.2468L73.1757 74.9794L73.1758 93.1888H62.8655V74.9795L68.0207 67.2468Z" fill="#FFFCF5"/>
</svg>
