<svg width="179" height="253" viewBox="0 0 179 253" fill="none" xmlns="http://www.w3.org/2000/svg">
<rect x="15.4027" y="15.5999" width="147.769" height="147.769" rx="73.8845" fill="#C79D09"/>
<path fill-rule="evenodd" clip-rule="evenodd" d="M91.1496 39.6955C91.8121 39.7014 92.4154 40.078 92.7117 40.6705L109.658 74.563L122.977 57.0169C123.314 56.5733 123.84 56.3147 124.397 56.3195C124.954 56.3243 125.476 56.5919 125.805 57.0412L142.048 79.2226C142.27 79.5249 142.389 79.89 142.389 80.2647V117.191H138.861V80.8415L124.357 61.0342L111.417 78.0806L120.418 96.0839C120.692 96.6307 120.663 97.28 120.341 97.8001C120.02 98.3201 119.452 98.6366 118.841 98.6366H98.5225V95.1088H115.987L91.0998 45.335L65.415 94.5114H83.7456V98.0392H62.5038C61.8869 98.0392 61.3149 97.7169 60.9952 97.1893C60.6755 96.6618 60.6547 96.0055 60.9403 95.4587L69.5342 79.0048L54.3578 61.0156L41.1787 80.7984V117.191H37.651V80.2647C37.651 79.9167 37.7539 79.5764 37.9469 79.2868L52.7238 57.1054C53.0314 56.6437 53.5382 56.3537 54.0921 56.3223C54.6459 56.2909 55.1823 56.522 55.54 56.946L71.299 75.6258L89.5706 40.6427C89.8773 40.0555 90.4872 39.6897 91.1496 39.6955Z" fill="#FFFCF5"/>
<path fill-rule="evenodd" clip-rule="evenodd" d="M91.1349 84.0262C91.7247 84.0262 92.2754 84.321 92.6025 84.8117L99.991 95.8944L97.0557 97.8512L91.1349 88.97L85.2141 97.8512L82.2788 95.8944L89.6673 84.8117C89.9944 84.321 90.5451 84.0262 91.1349 84.0262Z" fill="#FFFCF5"/>
<path fill-rule="evenodd" clip-rule="evenodd" d="M85.5103 117.274V96.8728H81.9825V120.802H100.287V96.8728H96.7594V117.274H85.5103Z" fill="#FFFCF5"/>
<path fill-rule="evenodd" clip-rule="evenodd" d="M120.688 120.802L61.5802 120.802V117.274L120.688 117.274V120.802Z" fill="#FFFCF5"/>
<path d="M15.4026 210.574H22.1958L29.3384 220.55V210.574H37.4515V236.466H30.6194L23.5156 226.528V236.466H15.4026V210.574Z" fill="#242F25"/>
<path d="M49.7839 210.574H55.9949L65.8159 236.466H57.6641L56.8101 234.136H48.9687L48.1147 236.466H39.9628L49.7839 210.574ZM54.6362 228.43L52.8894 223.888L51.1426 228.43H54.6362Z" fill="#242F25"/>
<path d="M94.3154 220.434C94.3154 222.219 94.0048 223.746 93.3837 225.014C92.7626 226.256 91.9086 227.266 90.8217 228.042C89.7607 228.818 88.5056 229.388 87.0563 229.75C85.633 230.112 84.0932 230.293 82.4369 230.293V236.466H74.1686V210.574H82.4369C84.0932 210.574 85.633 210.755 87.0563 211.117C88.5056 211.479 89.7607 212.049 90.8217 212.825C91.9086 213.602 92.7626 214.624 93.3837 215.892C94.0048 217.134 94.3154 218.648 94.3154 220.434ZM82.4369 223.306H82.7863C83.8732 223.306 84.6496 223.06 85.1154 222.569C85.6071 222.051 85.853 221.339 85.853 220.434C85.853 219.528 85.6071 218.829 85.1154 218.337C84.6496 217.82 83.8732 217.561 82.7863 217.561H82.4369V223.306Z" fill="#242F25"/>
<path d="M97.2398 210.574H104.033L111.176 220.55V210.574H119.289V236.466H112.457L105.353 226.528V236.466H97.2398V210.574Z" fill="#242F25"/>
<path d="M124.129 210.574H132.902V236.466H124.129V210.574Z" fill="#242F25"/>
<path d="M147.96 237.126C146.329 237.126 144.854 236.918 143.534 236.504C142.215 236.09 141.089 235.469 140.157 234.641C139.226 233.813 138.501 232.765 137.983 231.497C137.492 230.229 137.246 228.741 137.246 227.033V210.574H145.514V226.683C145.514 227.589 145.695 228.288 146.058 228.78C146.446 229.245 147.08 229.478 147.96 229.478C148.84 229.478 149.461 229.245 149.823 228.78C150.211 228.288 150.405 227.589 150.405 226.683V210.574H158.713V227.033C158.713 228.741 158.454 230.229 157.936 231.497C157.444 232.765 156.72 233.813 155.762 234.641C154.831 235.469 153.705 236.09 152.385 236.504C151.065 236.918 149.59 237.126 147.96 237.126Z" fill="#242F25"/>
<path d="M49.9756 199.241C48.3875 199.241 46.853 199.149 45.3723 198.965V182.427C46.1548 182.259 46.9988 182.128 47.9041 182.036C48.8171 181.944 49.6879 181.898 50.5165 181.898C56.7156 181.898 59.8152 184.794 59.8152 190.587C59.8152 193.548 59.0019 195.731 57.3754 197.135C55.7489 198.539 53.2823 199.241 49.9756 199.241ZM50.5625 197.158C52.0663 197.158 53.3053 196.932 54.2797 196.479C55.2617 196.019 55.9944 195.305 56.4778 194.338C56.9611 193.364 57.2028 192.11 57.2028 190.575C57.2028 188.304 56.6581 186.639 55.5686 185.581C54.4868 184.514 52.8373 183.981 50.6201 183.981C49.8298 183.981 48.9245 184.058 47.9041 184.211V197.008C48.656 197.108 49.5421 197.158 50.5625 197.158Z" fill="#242F25"/>
<path d="M72.0053 199.322C70.3942 199.322 68.9978 199.003 67.8163 198.366C66.6425 197.73 65.7333 196.763 65.0889 195.466C64.4444 194.162 64.1222 192.536 64.1222 190.587C64.1222 188.638 64.4444 187.015 65.0889 185.719C65.741 184.415 66.654 183.444 67.8278 182.807C69.0093 182.17 70.4018 181.852 72.0053 181.852C73.6165 181.852 75.0128 182.17 76.1944 182.807C77.3759 183.444 78.2889 184.415 78.9333 185.719C79.5778 187.023 79.9 188.646 79.9 190.587C79.9 192.528 79.574 194.151 78.9218 195.455C78.2774 196.759 77.3644 197.73 76.1828 198.366C75.0013 199.003 73.6088 199.322 72.0053 199.322ZM72.0053 197.227C73.6855 197.227 74.986 196.698 75.9066 195.639C76.835 194.58 77.2991 192.919 77.2991 190.656C77.2991 188.331 76.835 186.632 75.9066 185.558C74.986 184.484 73.6855 183.946 72.0053 183.946C70.3251 183.946 69.0247 184.476 68.104 185.535C67.1834 186.586 66.723 188.247 66.723 190.518C66.723 194.991 68.4838 197.227 72.0053 197.227Z" fill="#242F25"/>
<path d="M99.7051 182.071H102.743V199.103H100.361V185.523L94.9521 196.709H92.7541L87.3567 185.73V199.103H84.9744V182.071H88.0011L93.9049 194.223L99.7051 182.071Z" fill="#242F25"/>
<path d="M119.402 199.103L113.591 191.496H111.082V199.103H108.55V182.071H111.082V189.252H113.614L118.988 182.071H121.727L115.559 190.322L122.233 199.103H119.402Z" fill="#242F25"/>
<path d="M125.811 199.103V182.071H128.343V199.103H125.811Z" fill="#242F25"/>
</svg>
