<svg width="178" height="252" viewBox="0 0 178 252" fill="none" xmlns="http://www.w3.org/2000/svg">
<path fill-rule="evenodd" clip-rule="evenodd" d="M88.9026 162.6C129.496 162.6 162.403 129.693 162.403 89.0999C162.403 48.5069 129.496 15.5999 88.9026 15.5999C48.3097 15.5999 15.4026 48.5069 15.4026 89.0999C15.4026 129.693 48.3097 162.6 88.9026 162.6ZM91.0427 40.6206C90.747 40.0293 90.1449 39.6535 89.4838 39.6476C88.8226 39.6418 88.2139 40.0069 87.9078 40.5929L69.6726 75.5064L53.9449 56.8638C53.5879 56.4406 53.0526 56.21 52.4999 56.2413C51.9471 56.2726 51.4413 56.5621 51.1343 57.0229L36.3868 79.1601C36.1943 79.4492 36.0915 79.7888 36.0915 80.1361V116.989H39.6122V80.6688L52.7651 60.9253L67.9113 78.8787L59.3345 95.2999C59.0495 95.8456 59.0703 96.5006 59.3893 97.0271C59.7083 97.5537 60.2792 97.8753 60.8949 97.8753H80.3354V117.072L59.9733 117.072L59.9733 120.593H118.963V117.072L98.6037 117.072L98.6036 98.4715H117.12C117.73 98.4715 118.297 98.1556 118.617 97.6366C118.938 97.1176 118.967 96.4696 118.694 95.9239L109.711 77.9564L122.625 60.9438L137.1 80.7118V116.989H140.621V80.1361C140.621 79.7621 140.502 79.3978 140.281 79.0961L124.07 56.9588C123.742 56.5104 123.221 56.2434 122.665 56.2386C122.109 56.2338 121.584 56.4918 121.248 56.9345L107.955 74.4457L91.0427 40.6206ZM88.0048 84.6741L81.5512 94.3545H63.8003L89.434 45.2758L114.271 94.9508H97.7854L90.9343 84.6741C90.6078 84.1844 90.0581 83.8902 89.4695 83.8902C88.881 83.8902 88.3313 84.1844 88.0048 84.6741ZM89.4695 88.8242L95.0829 97.2441L95.0829 117.072H83.8561V97.2442L89.4695 88.8242Z" fill="#FFFCF5"/>
<path d="M15.4026 209.805H22.1958L29.3384 219.781V209.805H37.4515V235.697H30.6194L23.5157 225.759V235.697H15.4026V209.805Z" fill="#FFFCF5"/>
<path d="M49.7839 209.805H55.9949L65.816 235.697H57.6641L56.8101 233.367H48.9687L48.1147 235.697H39.9629L49.7839 209.805ZM54.6362 227.661L52.8894 223.119L51.1426 227.661H54.6362Z" fill="#FFFCF5"/>
<path d="M94.3154 219.665C94.3154 221.45 94.0049 222.977 93.3838 224.245C92.7627 225.487 91.9087 226.497 90.8217 227.273C89.7607 228.049 88.5056 228.619 87.0563 228.981C85.633 229.343 84.0932 229.524 82.4369 229.524V235.697H74.1686V209.805H82.4369C84.0932 209.805 85.633 209.986 87.0563 210.348C88.5056 210.71 89.7607 211.28 90.8217 212.056C91.9087 212.832 92.7627 213.855 93.3838 215.123C94.0049 216.365 94.3154 217.879 94.3154 219.665ZM82.4369 222.537H82.7863C83.8732 222.537 84.6496 222.291 85.1154 221.8C85.6071 221.282 85.853 220.57 85.853 219.665C85.853 218.759 85.6071 218.06 85.1154 217.568C84.6496 217.051 83.8732 216.792 82.7863 216.792H82.4369V222.537Z" fill="#FFFCF5"/>
<path d="M97.2398 209.805H104.033L111.176 219.781V209.805H119.289V235.697H112.457L105.353 225.759V235.697H97.2398V209.805Z" fill="#FFFCF5"/>
<path d="M124.129 209.805H132.902V235.697H124.129V209.805Z" fill="#FFFCF5"/>
<path d="M147.96 236.356C146.329 236.356 144.854 236.149 143.535 235.735C142.215 235.321 141.089 234.7 140.157 233.872C139.226 233.044 138.501 231.996 137.983 230.728C137.492 229.46 137.246 227.972 137.246 226.264V209.805H145.514V225.914C145.514 226.82 145.695 227.519 146.058 228.011C146.446 228.476 147.08 228.709 147.96 228.709C148.84 228.709 149.461 228.476 149.823 228.011C150.211 227.519 150.405 226.82 150.405 225.914V209.805H158.713V226.264C158.713 227.972 158.454 229.46 157.936 230.728C157.444 231.996 156.72 233.044 155.762 233.872C154.831 234.7 153.705 235.321 152.385 235.735C151.065 236.149 149.59 236.356 147.96 236.356Z" fill="#FFFCF5"/>
<path d="M49.9756 198.472C48.3875 198.472 46.853 198.38 45.3723 198.196V181.658C46.1549 181.49 46.9988 181.359 47.9041 181.267C48.8171 181.175 49.6879 181.129 50.5165 181.129C56.7156 181.129 59.8152 184.025 59.8152 189.818C59.8152 192.779 59.0019 194.962 57.3754 196.366C55.7489 197.77 53.2823 198.472 49.9756 198.472ZM50.5625 196.389C52.0663 196.389 53.3053 196.163 54.2797 195.71C55.2618 195.25 55.9944 194.536 56.4778 193.569C56.9611 192.595 57.2028 191.341 57.2028 189.806C57.2028 187.535 56.6581 185.87 55.5686 184.812C54.4869 183.745 52.8373 183.212 50.6201 183.212C49.8298 183.212 48.9245 183.289 47.9041 183.442V196.239C48.656 196.339 49.5421 196.389 50.5625 196.389Z" fill="#FFFCF5"/>
<path d="M72.0054 198.553C70.3942 198.553 68.9979 198.234 67.8163 197.597C66.6425 196.961 65.7333 195.994 65.0889 194.697C64.4444 193.393 64.1222 191.766 64.1222 189.818C64.1222 187.869 64.4444 186.246 65.0889 184.95C65.741 183.645 66.654 182.675 67.8278 182.038C69.0094 181.401 70.4019 181.083 72.0054 181.083C73.6165 181.083 75.0128 181.401 76.1944 182.038C77.3759 182.675 78.2889 183.645 78.9333 184.95C79.5778 186.254 79.9 187.877 79.9 189.818C79.9 191.759 79.574 193.381 78.9218 194.686C78.2774 195.99 77.3644 196.961 76.1829 197.597C75.0013 198.234 73.6088 198.553 72.0054 198.553ZM72.0054 196.458C73.6856 196.458 74.986 195.929 75.9067 194.87C76.835 193.811 77.2992 192.15 77.2992 189.887C77.2992 187.562 76.835 185.863 75.9067 184.789C74.986 183.715 73.6856 183.177 72.0054 183.177C70.3251 183.177 69.0247 183.707 68.104 184.766C67.1834 185.817 66.723 187.478 66.723 189.749C66.723 194.222 68.4838 196.458 72.0054 196.458Z" fill="#FFFCF5"/>
<path d="M99.7051 181.302H102.743V198.334H100.361V184.754L94.9521 195.94H92.7541L87.3567 184.961V198.334H84.9745V181.302H88.0011L93.9049 193.454L99.7051 181.302Z" fill="#FFFCF5"/>
<path d="M119.402 198.334L113.591 190.727H111.082V198.334H108.55V181.302H111.082V188.483H113.614L118.988 181.302H121.727L115.559 189.553L122.233 198.334H119.402Z" fill="#FFFCF5"/>
<path d="M125.811 198.334V181.302H128.343V198.334H125.811Z" fill="#FFFCF5"/>
</svg>
