<svg width="179" height="253" viewBox="0 0 179 253" fill="none" xmlns="http://www.w3.org/2000/svg">
<rect x="15.4027" y="15.4026" width="147.769" height="147.769" rx="73.8845" fill="#455844"/>
<path fill-rule="evenodd" clip-rule="evenodd" d="M91.1496 39.4982C91.8121 39.5041 92.4154 39.8807 92.7117 40.4732L109.658 74.3657L122.977 56.8196C123.314 56.376 123.84 56.1174 124.397 56.1222C124.954 56.127 125.476 56.3946 125.805 56.8439L142.048 79.0253C142.27 79.3276 142.389 79.6927 142.389 80.0674V116.994H138.861V80.6442L124.357 60.8369L111.417 77.8833L120.418 95.8866C120.692 96.4334 120.663 97.0827 120.341 97.6028C120.02 98.1228 119.452 98.4393 118.841 98.4393H98.5225V94.9115H115.987L91.0998 45.1377L65.415 94.3141H83.7456V97.8419H62.5038C61.8869 97.8419 61.3149 97.5196 60.9952 96.992C60.6755 96.4645 60.6547 95.8082 60.9403 95.2614L69.5342 78.8075L54.3578 60.8183L41.1787 80.6012V116.994H37.651V80.0674C37.651 79.7194 37.7539 79.3791 37.9469 79.0895L52.7238 56.9081C53.0314 56.4465 53.5382 56.1564 54.0921 56.125C54.6459 56.0936 55.1823 56.3247 55.54 56.7487L71.299 75.4285L89.5706 40.4455C89.8773 39.8582 90.4872 39.4924 91.1496 39.4982Z" fill="#FFFCF5"/>
<path fill-rule="evenodd" clip-rule="evenodd" d="M91.1349 83.8289C91.7246 83.8289 92.2754 84.1237 92.6025 84.6144L99.991 95.6971L97.0557 97.6539L91.1349 88.7727L85.2141 97.6539L82.2788 95.6971L89.6673 84.6144C89.9944 84.1237 90.5451 83.8289 91.1349 83.8289Z" fill="#FFFCF5"/>
<path fill-rule="evenodd" clip-rule="evenodd" d="M85.5103 117.077V96.6755H81.9826V120.605H100.287V96.6755H96.7595V117.077H85.5103Z" fill="#FFFCF5"/>
<path fill-rule="evenodd" clip-rule="evenodd" d="M120.688 120.605L61.5802 120.605V117.077L120.688 117.077V120.605Z" fill="#FFFCF5"/>
<path d="M15.4026 210.376H22.1958L29.3384 220.353V210.376H37.4515V236.268H30.6194L23.5156 226.331V236.268H15.4026V210.376Z" fill="#455844"/>
<path d="M49.7839 210.376H55.9949L65.8159 236.268H57.6641L56.8101 233.939H48.9687L48.1147 236.268H39.9628L49.7839 210.376ZM54.6362 228.233L52.8894 223.691L51.1426 228.233H54.6362Z" fill="#455844"/>
<path d="M94.3154 220.236C94.3154 222.022 94.0048 223.549 93.3837 224.817C92.7626 226.059 91.9086 227.068 90.8217 227.845C89.7607 228.621 88.5056 229.19 87.0563 229.553C85.633 229.915 84.0932 230.096 82.4369 230.096V236.268H74.1686V210.376H82.4369C84.0932 210.376 85.633 210.558 87.0563 210.92C88.5056 211.282 89.7607 211.852 90.8217 212.628C91.9086 213.404 92.7626 214.426 93.3837 215.695C94.0048 216.937 94.3154 218.451 94.3154 220.236ZM82.4369 223.109H82.7863C83.8732 223.109 84.6496 222.863 85.1154 222.371C85.6071 221.854 85.853 221.142 85.853 220.236C85.853 219.331 85.6071 218.632 85.1154 218.14C84.6496 217.623 83.8732 217.364 82.7863 217.364H82.4369V223.109Z" fill="#455844"/>
<path d="M97.2398 210.376H104.033L111.176 220.353V210.376H119.289V236.268H112.457L105.353 226.331V236.268H97.2398V210.376Z" fill="#455844"/>
<path d="M124.129 210.376H132.902V236.268H124.129V210.376Z" fill="#455844"/>
<path d="M147.96 236.928C146.329 236.928 144.854 236.721 143.534 236.307C142.215 235.893 141.089 235.272 140.157 234.444C139.226 233.616 138.501 232.568 137.983 231.3C137.492 230.032 137.246 228.543 137.246 226.835V210.376H145.514V226.486C145.514 227.392 145.695 228.091 146.058 228.582C146.446 229.048 147.08 229.281 147.96 229.281C148.84 229.281 149.461 229.048 149.823 228.582C150.211 228.091 150.405 227.392 150.405 226.486V210.376H158.713V226.835C158.713 228.543 158.454 230.032 157.936 231.3C157.444 232.568 156.72 233.616 155.762 234.444C154.831 235.272 153.705 235.893 152.385 236.307C151.065 236.721 149.59 236.928 147.96 236.928Z" fill="#455844"/>
<path d="M49.9756 199.044C48.3875 199.044 46.853 198.952 45.3723 198.768V182.23C46.1548 182.061 46.9988 181.931 47.9041 181.839C48.8171 181.747 49.6879 181.701 50.5165 181.701C56.7156 181.701 59.8152 184.597 59.8152 190.39C59.8152 193.351 59.0019 195.534 57.3754 196.938C55.7489 198.342 53.2823 199.044 49.9756 199.044ZM50.5625 196.961C52.0663 196.961 53.3053 196.734 54.2797 196.282C55.2617 195.821 55.9944 195.108 56.4778 194.141C56.9611 193.167 57.2028 191.912 57.2028 190.378C57.2028 188.107 56.6581 186.442 55.5686 185.383C54.4868 184.317 52.8373 183.784 50.6201 183.784C49.8298 183.784 48.9245 183.86 47.9041 184.014V196.811C48.656 196.911 49.5421 196.961 50.5625 196.961Z" fill="#455844"/>
<path d="M72.0053 199.124C70.3942 199.124 68.9978 198.806 67.8163 198.169C66.6425 197.532 65.7333 196.566 65.0889 195.269C64.4444 193.965 64.1222 192.338 64.1222 190.39C64.1222 188.441 64.4444 186.818 65.0889 185.522C65.741 184.217 66.654 183.247 67.8278 182.61C69.0093 181.973 70.4018 181.655 72.0053 181.655C73.6165 181.655 75.0128 181.973 76.1944 182.61C77.3759 183.247 78.2889 184.217 78.9333 185.522C79.5778 186.826 79.9 188.448 79.9 190.39C79.9 192.331 79.574 193.953 78.9218 195.258C78.2774 196.562 77.3644 197.532 76.1828 198.169C75.0013 198.806 73.6088 199.124 72.0053 199.124ZM72.0053 197.03C73.6855 197.03 74.986 196.5 75.9066 195.442C76.835 194.383 77.2991 192.722 77.2991 190.459C77.2991 188.134 76.835 186.434 75.9066 185.36C74.986 184.286 73.6855 183.749 72.0053 183.749C70.3251 183.749 69.0247 184.279 68.104 185.337C67.1834 186.388 66.723 188.049 66.723 190.32C66.723 194.793 68.4838 197.03 72.0053 197.03Z" fill="#455844"/>
<path d="M99.7051 181.873H102.743V198.906H100.361V185.326L94.9521 196.512H92.7541L87.3567 185.533V198.906H84.9744V181.873H88.0011L93.9049 194.026L99.7051 181.873Z" fill="#455844"/>
<path d="M119.402 198.906L113.591 191.299H111.082V198.906H108.55V181.873H111.082V189.055H113.614L118.988 181.873H121.727L115.559 190.125L122.233 198.906H119.402Z" fill="#455844"/>
<path d="M125.811 198.906V181.873H128.343V198.906H125.811Z" fill="#455844"/>
</svg>
